<?xml version="1.0" encoding="utf-8"?>
<!-- Generator: Adobe Illustrator 26.0.3, SVG Export Plug-In . SVG Version: 6.00 Build 0)  -->
<svg version="1.1" id="Layer_1" xmlns="http://www.w3.org/2000/svg" xmlns:xlink="http://www.w3.org/1999/xlink" x="0px" y="0px"
	 viewBox="0 0 934 345" style="enable-background:new 0 0 934 345;" xml:space="preserve">
<style type="text/css">
	.st0{fill:#2D4859;}
	.st1{fill:#FFEB00;}
</style>
<g>
	<g>
		<path class="st0" d="M224,179.7c3.1,3.9,4.6,8.4,4.6,13.5c0,7.3-2.5,13-7.6,17.3c-5.1,4.3-12.2,6.4-21.3,6.4h-40.5v-87h39.2
			c8.8,0,15.8,2,20.8,6.1c5,4.1,7.5,9.5,7.5,16.5c0,5.1-1.3,9.4-4,12.8c-2.7,3.4-6.3,5.7-10.7,7.1
			C216.9,173.2,220.9,175.7,224,179.7z M180.3,165h13.9c3.5,0,6.1-0.8,8-2.3c1.9-1.5,2.8-3.8,2.8-6.8c0-3-0.9-5.2-2.8-6.8
			c-1.9-1.6-4.5-2.4-8-2.4h-13.9V165z M204.2,197.3c1.9-1.6,2.9-3.9,2.9-7c0-3.1-1-5.5-3-7.2c-2-1.7-4.8-2.6-8.4-2.6h-15.4v19.2H196
			C199.5,199.7,202.3,198.9,204.2,197.3z"/>
		<path class="st0" d="M262.1,129.8v87h-21.2v-87H262.1z"/>
		<path class="st0" d="M342.3,179.7c3.1,3.9,4.6,8.4,4.6,13.5c0,7.3-2.5,13-7.6,17.3c-5.1,4.3-12.2,6.4-21.3,6.4h-40.5v-87h39.2
			c8.8,0,15.8,2,20.8,6.1c5,4.1,7.5,9.5,7.5,16.5c0,5.1-1.3,9.4-4,12.8c-2.7,3.4-6.3,5.7-10.7,7.1
			C335.2,173.2,339.2,175.7,342.3,179.7z M298.6,165h13.9c3.5,0,6.1-0.8,8-2.3c1.9-1.5,2.8-3.8,2.8-6.8c0-3-0.9-5.2-2.8-6.8
			c-1.9-1.6-4.5-2.4-8-2.4h-13.9V165z M322.5,197.3c1.9-1.6,2.9-3.9,2.9-7c0-3.1-1-5.5-3-7.2c-2-1.7-4.8-2.6-8.4-2.6h-15.4v19.2
			h15.6C317.8,199.7,320.6,198.9,322.5,197.3z"/>
		<path class="st0" d="M380.4,200.4h27.8v16.4h-49v-87h21.2V200.4z"/>
		<path class="st0" d="M439.5,146.7v17.6h28.4v16.4h-28.4v19.1h32.1v17h-53.3v-87h53.3v17H439.5z"/>
	</g>
	<g>
		<path class="st1" d="M493.2,209.5c0-4.6,3.1-7.8,7.4-7.8c4.3,0,7.3,3.2,7.3,7.8c0,4.5-2.9,7.8-7.4,7.8
			C496.2,217.3,493.2,214,493.2,209.5z"/>
		<path class="st1" d="M587.1,129.2v86.4h-11.3v-39.2h-44v39.2h-11.3v-86.4h11.3v37.9h44v-37.9H587.1z"/>
		<path class="st1" d="M615,138.5v28.9h31.5v9.3H615v29.8h35.2v9.3h-46.5v-86.6h46.5v9.3H615z"/>
		<path class="st1" d="M675.5,206.8h30.3v9.2h-41.5v-86.4h11.3V206.8z"/>
		<path class="st1" d="M767.5,173.3c-4.9,4.8-12.4,7.1-22.5,7.1h-16.6v36.1h-11.3v-86.4H745c9.8,0,17.2,2.4,22.3,7.1
			s7.6,10.8,7.6,18.2C774.9,162.6,772.4,168.5,767.5,173.3z M758.9,167c3-2.7,4.5-6.6,4.5-11.7c0-10.7-6.1-16-18.4-16h-16.6v31.7
			H745C751.3,171.1,755.9,169.7,758.9,167z"/>
	</g>
</g>
<path d="M556.1,176.2"/>
</svg>
